<?xml version="1.0" standalone="no"?><!DOCTYPE svg PUBLIC "-//W3C//DTD SVG 1.1//EN" "http://www.w3.org/Graphics/SVG/1.1/DTD/svg11.dtd"><svg t="1536648313861" class="icon" style="" viewBox="0 0 1024 1024" version="1.1" xmlns="http://www.w3.org/2000/svg" p-id="11073" xmlns:xlink="http://www.w3.org/1999/xlink" width="16" height="16"><defs><style type="text/css"></style></defs><path d="M870.47 776.77l-68.665-120.825V403.514c0-52.641-19.117-108.138-53.849-156.264-35.295-48.964-84.905-87.28-139.624-107.892l-0.962-0.338c-1.26-0.41-5.919-1.894-12.769-3.86v-8.407a82.601 82.601 0 1 0-165.212 0v7.803c-6.38 1.822-10.424 3.072-10.895 3.266l-0.717 0.246c-55.559 20.12-105.998 58.364-142.03 107.77-35.377 48.473-54.853 104.441-54.853 157.686v252.452l-73.447 129.313a50.112 50.112 0 0 0 43.548 75.024H372.53c10.414 67.58 68.983 119.545 139.46 119.545s129.017-51.934 139.461-119.545h181.534a50.173 50.173 0 0 0 50.173-50.173 49.538 49.538 0 0 0-12.707-33.41z m-358.5-689.5a39.534 39.534 0 0 1 39.431 37.476 310.826 310.826 0 0 0-13.362-2.252 21.707 21.707 0 0 0-5.683-0.072l-2.345-0.348a99.69 99.69 0 0 0-37.425 0l-1.997 0.297a21.503 21.503 0 0 0-5.887 0c-4.096 0.573-8.13 1.239-12.144 1.966a39.524 39.524 0 0 1 39.411-37.067z m0 849.47a98.145 98.145 0 0 1-95.565-76.427h191.149a98.145 98.145 0 0 1-95.585 76.427z m321.014-119.555h-642.01a6.953 6.953 0 0 1-6.05-3.38 7.168 7.168 0 0 1 0-7.167l76.334-134.34a21.503 21.503 0 0 0 2.816-10.65V403.515c0-93.322 72.218-189.87 168.049-224.765a426.726 426.726 0 0 1 52.937-12.8 21.431 21.431 0 0 0 4.526 0c3.369-0.337 6.492-0.818 9.512-1.269a84.741 84.741 0 0 1 12.288-1.29 84.68 84.68 0 0 1 12.287 1.29c3.072 0.46 6.144 0.932 9.502 1.27a21.595 21.595 0 0 0 4.096 0c25.946 4.341 52.415 12.625 56.419 13.905 94.08 35.735 165.048 131.78 165.048 223.659v258.155a21.554 21.554 0 0 0 2.816 10.66l72.751 128.063a21.503 21.503 0 0 0 3.768 4.854 6.758 6.758 0 0 1 1.987 4.925 6.963 6.963 0 0 1-7.076 7.004z" p-id="11074" fill="#8a8a8a"></path></svg>