<?xml version="1.0" standalone="no"?><!DOCTYPE svg PUBLIC "-//W3C//DTD SVG 1.1//EN" "http://www.w3.org/Graphics/SVG/1.1/DTD/svg11.dtd"><svg t="1536648349560" class="icon" style="" viewBox="0 0 1137 1024" version="1.1" xmlns="http://www.w3.org/2000/svg" p-id="11869" xmlns:xlink="http://www.w3.org/1999/xlink" width="17.765625" height="16"><defs><style type="text/css"></style></defs><path d="M990.860841 1024H146.916936C66.278317 1024 0 957.721683 0 877.083064V146.916936C0 66.278317 66.278317 0 146.916936 0h843.943905C1071.499461 0 1137.777778 66.278317 1137.777778 146.916936v234.183388H751.154261c-56.33657 0-102.731392 46.394822-102.731392 102.731391v55.231931c0 56.33657 46.394822 102.731392 102.731392 102.731392h386.623517v234.183387c0 81.743258-66.278317 148.021575-146.916937 148.021575zM146.916936 44.185545C90.580367 44.185545 44.185545 90.580367 44.185545 146.916936v730.166128c0 56.33657 46.394822 102.731392 102.731391 102.731391h843.943905c56.33657 0 102.731392-46.394822 102.731392-102.731391V687.085221H751.154261c-80.638619 0-146.916936-66.278317-146.916936-146.916936v-55.231931c0-80.638619 66.278317-146.916936 146.916936-146.916937h342.437972V146.916936C1093.592233 90.580367 1047.197411 44.185545 990.860841 44.185545H146.916936z" p-id="11870" fill="#8a8a8a"></path><path d="M794.235167 512.552319m-54.127292 0a54.127292 54.127292 0 1 0 108.254585 0 54.127292 54.127292 0 1 0-108.254585 0Z" p-id="11871" fill="#8a8a8a"></path><path d="M1115.685005 687.085221c-12.151025 0-22.092772-9.941748-22.092772-22.092772V359.007551c0-12.151025 9.941748-22.092772 22.092772-22.092772s22.092772 9.941748 22.092773 22.092772v305.984898c0 12.151025-9.941748 22.092772-22.092773 22.092772z" p-id="11872" fill="#8a8a8a"></path></svg>