<?xml version="1.0" standalone="no"?><!DOCTYPE svg PUBLIC "-//W3C//DTD SVG 1.1//EN" "http://www.w3.org/Graphics/SVG/1.1/DTD/svg11.dtd"><svg t="1536716662334" class="icon" style="" viewBox="0 0 1024 1024" version="1.1" xmlns="http://www.w3.org/2000/svg" p-id="7315" xmlns:xlink="http://www.w3.org/1999/xlink" width="48" height="48"><defs><style type="text/css"></style></defs><path d="M934.399999 255.999999c-70.4-121.6-179.199999-204.799999-313.599999-236.799999-185.599999-51.2-383.999999 6.4-511.999999 153.6L19.200001 115.2l6.4 223.999999c0 19.2 25.6 32 38.4 19.2l191.999999-115.2L166.400001 198.399999c115.2-121.6 287.999999-166.4 447.999999-128 115.2 32 217.599999 108.8 275.199999 211.199999 64 108.8 76.8 230.399999 44.8 345.599999-32 115.2-108.8 217.599999-211.199999 275.199999-108.8 64-230.399999 76.8-345.599999 44.8-121.6-32-217.599999-108.8-281.599999-217.599999-6.4-12.8-25.6-19.2-38.4-12.8-12.8 6.4-19.2 25.6-12.8 38.4 70.4 121.6 179.199999 204.799999 313.599999 243.199999C403.2 1017.599997 448 1023.999997 492.8 1023.999997c89.6 0 179.199999-25.6 255.999999-70.4 121.6-70.4 204.799999-179.199999 236.799999-313.599999C1023.999999 511.999999 1004.799999 377.599999 934.399999 255.999999z" p-id="7316" fill="#8a8a8a"></path><path d="M665.6 716.799998 665.6 582.399998 339.2 582.399998l0 140.8 64 0L403.2 703.999998l204.799999 0 0 19.2L665.6 723.199998zM403.2 659.199998 403.2 627.199998l204.799999 0 0 32L403.2 659.199998z" p-id="7317" fill="#8a8a8a"></path><path d="M377.6 300.799999C352 345.599999 326.400001 383.999999 288.000001 415.999999c6.4 19.2 19.2 38.4 25.6 64C320.000001 473.599999 332.800001 460.799999 339.2 454.399999l0 115.2 57.6 0L396.8 563.199998l300.799999 0L697.599999 524.799999 550.4 524.799999 550.4 499.199999l121.6 0L672 460.799999 550.4 460.799999 550.4 441.599999l121.6 0L672 403.199999 550.4 403.199999 550.4 383.999999l140.8 0L691.199999 345.599999l-128 0C556.8 326.399999 544 313.599999 537.6 294.399999L480 307.199999C486.4 319.999999 492.8 332.799999 492.8 345.599999L416 345.599999c6.4-6.4 12.8-19.2 12.8-25.6L377.6 300.799999zM492.8 524.799999 396.8 524.799999 396.8 499.199999l102.4 0L499.2 524.799999zM492.8 460.799999 396.8 460.799999 396.8 441.599999l102.4 0L499.2 460.799999zM492.8 383.999999l0 25.6L396.8 409.599999 396.8 383.999999 492.8 383.999999z" p-id="7318" fill="#8a8a8a"></path></svg>