<?xml version="1.0" standalone="no"?><!DOCTYPE svg PUBLIC "-//W3C//DTD SVG 1.1//EN" "http://www.w3.org/Graphics/SVG/1.1/DTD/svg11.dtd"><svg t="1536716637612" class="icon" style="" viewBox="0 0 1024 1024" version="1.1" xmlns="http://www.w3.org/2000/svg" p-id="6771" xmlns:xlink="http://www.w3.org/1999/xlink" width="48" height="48"><defs><style type="text/css"></style></defs><path d="M244.363636 465.454545C211.781818 465.454545 186.181818 491.054545 186.181818 523.636364S211.781818 581.818182 244.363636 581.818182s58.181818-25.6 58.181819-58.181818-25.6-58.181818-58.181819-58.181819zM512 465.454545c-32.581818 0-58.181818 25.6-58.181818 58.181819S479.418182 581.818182 512 581.818182s58.181818-25.6 58.181818-58.181818S544.581818 465.454545 512 465.454545z m0-465.454545C228.072727 0 0 228.072727 0 512c0 274.618182 216.436364 500.363636 491.054545 512H791.272727c23.272727 0 46.545455-23.272727 46.545455-46.545455v-69.818181c114.036364-93.090909 186.181818-235.054545 186.181818-395.636364C1024 228.072727 795.927273 0 512 0z m281.6 882.036364l-2.327273 2.327272v48.872728c0 46.545455-4.654545 46.545455-46.545454 46.545454H512C256 977.454545 46.545455 768 46.545455 512S256 46.545455 512 46.545455s465.454545 209.454545 465.454545 465.454545c0 151.272727-72.145455 283.927273-183.854545 370.036364zM779.636364 465.454545c-32.581818 0-58.181818 25.6-58.181819 58.181819s25.6 58.181818 58.181819 58.181818 58.181818-25.6 58.181818-58.181818-25.6-58.181818-58.181818-58.181819z" fill="#666666" p-id="6772"></path></svg>