<?xml version="1.0" standalone="no"?><!DOCTYPE svg PUBLIC "-//W3C//DTD SVG 1.1//EN" "http://www.w3.org/Graphics/SVG/1.1/DTD/svg11.dtd"><svg t="1536716873706" class="icon" style="" viewBox="0 0 1024 1024" version="1.1" xmlns="http://www.w3.org/2000/svg" p-id="9841" xmlns:xlink="http://www.w3.org/1999/xlink" width="48" height="48"><defs><style type="text/css"></style></defs><path d="M514.160634 183.86071a325.503963 325.503963 0 1 0 325.503963 325.503962 325.503963 325.503963 0 0 0-325.503963-325.503962z m44.078662 545.219137a49.334194 49.334194 0 0 1-47.062448 36.076689c-22.039331 0-44.078662-15.156278-50.859994-35.466369a10.171999 10.171999 0 0 1 9.561679-13.359225h78.731271a10.171999 10.171999 0 0 1 9.527772 12.681092zM725.602583 676.4228l-423.833284 0.91548a12.240305 12.240305 0 0 1-12.240306-12.206399v-1.32236a10.171999 10.171999 0 0 1 2.983787-7.154305L348.28924 613.72938a10.171999 10.171999 0 0 0 2.983786-7.188212v-129.896425c0-75.611858 39.467355-140.949997 110.094934-169.736754v-0.237347a50.012328 50.012328 0 1 1 99.956842-3.085506v1.356267c81.579431 13.800012 118.435973 90.53079 118.435973 167.261567v133.422718a10.171999 10.171999 0 0 0 2.94988 7.120399l53.4369 42.925835a10.171999 10.171999 0 0 1 2.94988 7.120399 13.562665 13.562665 0 0 1-13.494852 13.630479z" p-id="9842" fill="#8a8a8a"></path><path d="M511.990608 1024C225.275867 1024-7.154306 787.094147 0.169533 498.751887 7.222119 220.615532 238.262119-2.354682 516.500194 0.018784a508.294782 508.294782 0 0 1 277.186968 84.359777 16.512545 16.512545 0 0 1 4.340053 23.327784A16.478638 16.478638 0 0 1 775.445378 111.910771a479.033332 479.033332 0 0 0-742.555915 400.098621c0 264.098996 214.866522 478.965518 478.965518 478.965518s479.101145-214.866522 479.101145-478.965518A473.438732 473.438732 0 0 0 945.995891 309.315362a16.580358 16.580358 0 0 1 7.425559-21.801984 16.546451 16.546451 0 0 1 22.446211 7.662906A506.192569 506.192569 0 0 1 1023.981216 512.009392c0 282.306874-229.683734 511.990608-511.990608 511.990608z" p-id="9843" fill="#8a8a8a"></path><path d="M927.00816 223.361972m-18.648664 0a18.648665 18.648665 0 1 0 37.297329 0 18.648665 18.648665 0 1 0-37.297329 0Z" p-id="9844" fill="#8a8a8a"></path></svg>