<?xml version="1.0" standalone="no"?><!DOCTYPE svg PUBLIC "-//W3C//DTD SVG 1.1//EN" "http://www.w3.org/Graphics/SVG/1.1/DTD/svg11.dtd"><svg t="1536633569816" class="icon" style="" viewBox="0 0 1024 1024" version="1.1" xmlns="http://www.w3.org/2000/svg" p-id="1252" xmlns:xlink="http://www.w3.org/1999/xlink" width="32" height="32"><defs><style type="text/css"></style></defs><path d="M532 132.8l0 303.2 303.2 0c26.4 0 48 21.6 48 48 0 26.4-21.6 48-48 48l-303.2 0 0 303.2c0 26.4-21.6 48-48 48-26.4 0-48-21.6-48-48l0-303.2-303.2 0c-26.4 0-48-21.6-48-48 0-26.4 21.6-48 48-48l303.2 0 0-303.2c0-26.4 21.6-48 48-48C510.4 84.8 532 106.4 532 132.8z" p-id="1253" fill="#ffffff"></path></svg>