<?xml version="1.0" standalone="no"?><!DOCTYPE svg PUBLIC "-//W3C//DTD SVG 1.1//EN" "http://www.w3.org/Graphics/SVG/1.1/DTD/svg11.dtd"><svg t="1536659507388" class="icon" style="" viewBox="0 0 1024 1024" version="1.1" xmlns="http://www.w3.org/2000/svg" p-id="17797" xmlns:xlink="http://www.w3.org/1999/xlink" width="16" height="16"><defs><style type="text/css"></style></defs><path d="M76.44335163164453 985.4311396996741c14.202934734696296 0 23.67155659662222-9.468623156464195 23.67155659662222-23.67155789116049 0-213.0440132532148 172.80236548551107-385.8463787387259 385.8463787387259-385.8463774441877 66.28035950617284 0 130.19356387049874 16.57008987654321 187.00530022020743 47.34311319324444 11.83577829831111 7.101466720079011 26.038713033007408 2.3671551418469137 33.14017975308642-9.468623156464195 7.101466720079011-11.83577829831111 2.3671551418469137-26.038713033007408-9.468623156464195-33.14017975308642-28.40586817485432-16.57008987654321-59.178892786093826-28.40586817485432-89.95191610279505-37.874490036780244 87.58476096094816-44.97595805139753 149.1308088888889-137.29503059057777 149.1308088888889-243.8170378644543 0-151.49796403073577-123.09209585588148-274.59006118115553-274.59006118115553-274.59005988661727S206.6369155021432 147.4580227160494 206.6369155021432 298.95598674678513c0 108.88916241572346 61.54604792794074 201.2082336603654 153.865120467121 246.1841930063012-177.5366770637432 54.44458120786173-307.730240934242 220.1454799732938-307.730240934242 414.25224691358017 0 16.57008987654321 9.468623156464195 26.038713033007408 23.67155659662222 26.038713033007408z m177.5366770637432-684.1079965165036c0-125.45925229226665 101.78769440110615-227.24694669337282 227.24694669337282-227.24694669337282s227.24694669337282 101.78769440110615 227.2469479879111 227.24694669337282-101.78769440110615 227.24694669337282-227.2469479879111 227.24694669337282-227.24694669337282-101.78769440110615-227.24694669337282-227.24694669337282zM774.7542828828444 968.8610498231308c14.202934734696296 0 23.67155659662222-9.468623156464195 23.67155659662222-23.67155789116049v-139.66218573242463H938.0880252118914c14.202934734696296 0 23.67155659662222-9.468623156464195 23.67155659662222-23.67155659662222s-9.468623156464195-23.67155659662222-23.67155659662222-23.67155659662222h-139.66218573242463v-139.66218702696295c0-14.202934734696296-9.468623156464195-23.67155659662222-23.67155659662222-23.67155659662222s-23.67155659662222 9.468623156464195-23.67155789116049 23.67155659662222v139.66218702696295h-139.66218573242463c-14.202934734696296 0-23.67155659662222 9.468623156464195-23.67155659662222 23.67155659662222s9.468623156464195 23.67155659662222 23.67155659662222 23.67155659662222h139.66218573242463v139.66218573242463c0 14.202934734696296 9.468623156464195 23.67155659662222 23.67155789116049 23.67155789116049z" fill="#ffffff" p-id="17798"></path></svg>