<?xml version="1.0" standalone="no"?><!DOCTYPE svg PUBLIC "-//W3C//DTD SVG 1.1//EN" "http://www.w3.org/Graphics/SVG/1.1/DTD/svg11.dtd"><svg t="1536657490339" class="icon" style="" viewBox="0 0 1024 1024" version="1.1" xmlns="http://www.w3.org/2000/svg" p-id="17058" xmlns:xlink="http://www.w3.org/1999/xlink" width="16" height="16"><defs><style type="text/css"></style></defs><path d="M862.4 884.224l0.576 0.64-12.928 11.392c-1.472 1.344-3.264 2.176-4.8 3.52a511.808 511.808 0 0 1-75.968 54.08 507.328 507.328 0 0 1-71.68 34.752l-11.456 4.224a509.056 509.056 0 0 1-78.848 21.888c-3.072 0.576-6.208 0.896-9.344 1.408A506.816 506.816 0 0 1 512 1023.936a513.28 513.28 0 0 1-85.888-7.744c-3.2-0.576-6.336-0.896-9.472-1.472a506.688 506.688 0 0 1-78.656-21.888c-3.904-1.408-7.808-2.752-11.648-4.288a511.424 511.424 0 0 1-83.84-42.112 517.76 517.76 0 0 1-63.616-46.528c-1.536-1.344-3.392-2.304-4.992-3.648l-12.864-11.392 0.576-0.704A510.464 510.464 0 0 1 0.064 511.872C0.064 229.44 229.76-0.256 512-0.256c282.304 0 511.936 229.696 511.936 512.128a510.592 510.592 0 0 1-161.536 372.352zM594.368 628.16c19.456-20.224 31.808-53.12 44.288-96.256l7.104-24.384 14.272 10.752a46.016 46.016 0 0 0 12.736-22.656 62.08 62.08 0 0 0 1.088-26.368l-13.376-4.288 2.816-16.832c27.136-95.232 26.24-177.984-2.432-216-11.52-15.232-27.264-22.656-48.064-22.656l-9.536 0.32-4.544-2.688c-11.456-6.784-17.152-14.592-21.376-20.288-5.952-8.128-10.624-14.528-54.4-14.528h-5.952c-58.048 0-101.056 16.512-128.192 48.96-37.824 45.504-47.104 122.496-27.584 229.056l3.136 17.536-11.648 1.92a62.4 62.4 0 0 0 0.448 25.728c2.624 14.144 12.096 24.128 15.232 25.536l13.184-0.576 1.024 12.16c15.552 46.912 30.72 76.864 47.936 94.272l4.864 4.864 0.256 6.848c0.576 17.792 2.432 76.928-0.32 91.84-3.2 17.344-12.096 33.152-27.136 48.192-14.848 14.848-33.088 23.744-61.568 35.008-57.792 16-103.872 39.232-133.76 66.624 6.336 5.12 12.224 10.688 18.816 15.488 9.28 6.848 18.752 13.376 28.48 19.456 15.04 9.408 30.784 17.728 46.912 25.472 10.368 4.992 20.736 10.112 31.424 14.336 17.6 6.912 35.904 12.096 54.4 16.896 10.048 2.624 19.84 6.016 30.08 7.936 28.928 5.504 58.56 9.024 89.024 9.024 30.528 0 60.16-3.52 89.024-9.024 10.24-1.984 20.096-5.312 30.144-7.936 18.496-4.8 36.736-9.984 54.272-16.896 10.816-4.224 21.184-9.408 31.68-14.4 16-7.68 31.616-15.936 46.592-25.344a456.96 456.96 0 0 0 28.8-19.648c6.528-4.736 12.352-10.304 18.624-15.36-29.568-27.136-74.88-50.112-130.56-65.664-30.848-13.376-40.448-17.856-52.8-27.968l-8.192-8c-12.864-12.544-26.176-25.472-30.016-56.064L589.44 633.216l4.928-5.056zM512 34.88C249.088 34.88 35.2 248.832 35.2 511.872c0 136.704 58.56 259.328 151.04 346.368 34.048-32.768 85.504-60.288 149.248-77.888 25.984-10.368 38.528-17.216 47.872-26.56 10.048-9.984 15.552-19.456 17.472-29.76 1.28-7.04 0.96-44.48-0.064-77.632-17.984-20.416-33.664-50.816-48.704-94.656-15.488-8.128-29.248-27.904-33.408-49.728-4.416-23.424-1.92-43.072 6.336-54.848-19.136-112.512-6.784-196.032 36.864-248.384 34.048-40.896 86.208-61.568 154.944-61.568l6.144-0.064c57.216 0 70.336 11.968 82.752 28.864 2.368 3.264 4.288 5.952 7.232 8.32 31.616 0 57.856 12.736 75.968 36.672 34.304 45.504 38.464 132.544 11.52 234.432 9.536 11.712 12.16 32.704 6.592 57.792-5.184 23.232-21.632 44.096-38.144 50.432-12.224 40.128-24.64 70.592-44.288 93.44v73.28c2.176 16.192 8.32 22.208 19.52 33.024l7.424 7.424c6.976 5.568 13.184 8.576 40.832 20.8 61.056 16.896 111.68 44.16 145.408 76.608 92.48-87.04 151.04-209.664 151.04-346.368 0-263.04-213.888-476.992-476.8-476.992z" fill="#8a8a8a" p-id="17059"></path></svg>