<?xml version="1.0" standalone="no"?><!DOCTYPE svg PUBLIC "-//W3C//DTD SVG 1.1//EN" "http://www.w3.org/Graphics/SVG/1.1/DTD/svg11.dtd"><svg t="1536569430322" class="icon" style="" viewBox="0 0 1024 1024" version="1.1" xmlns="http://www.w3.org/2000/svg" p-id="8486" xmlns:xlink="http://www.w3.org/1999/xlink" width="16" height="16"><defs><style type="text/css"></style></defs><path d="M699.06125 988.25L177.970625 988.25c-42.669375 0-77.4075-34.6575-77.4075-77.229375L100.563125 114.7025c0-42.60375 34.738125-77.263125 77.4075-77.263125l672.436875 0c42.669375 0 77.4075 34.6575 77.4075 77.263125L927.815 733.3625c0 5.458125-2.023125 10.708125-5.65125 14.81625L715.74125 980.785625C711.51875 985.521875 705.46625 988.25 699.06125 988.25zM177.970625 82.034375c-18.091875 0-32.8275 14.656875-32.8275 32.65125l0 796.318125c0 18.028125 14.735625 32.65125 32.8275 32.65125l511.089375 0 194.143125-218.784375 0-610.168125c0-17.994375-14.70375-32.65125-32.795625-32.65125L177.970625 82.05125 177.970625 82.034375zM734.26625 269.845625L306.6875 269.845625c-18.594375 0-33.67125-15.07875-33.67125-33.695625 0-18.594375 15.07875-33.695625 33.67125-33.695625l427.57875 0c18.64125 0 33.67125 15.103125 33.67125 33.695625C767.913125 254.766875 752.883125 269.845625 734.26625 269.845625zM734.26625 452.76875L306.6875 452.76875c-18.594375 0-33.67125-15.1275-33.67125-33.67125 0-18.616875 15.07875-33.72 33.67125-33.72l427.57875 0c18.64125 0 33.67125 15.103125 33.67125 33.72C767.913125 437.643125 752.883125 452.76875 734.26625 452.76875zM535.904375 638.285L306.6875 638.285c-18.594375 0-33.67125-15.1275-33.67125-33.72 0-18.57 15.07875-33.67125 33.67125-33.67125l229.216875 0c18.594375 0 33.67125 15.103125 33.67125 33.67125C569.575625 623.1575 554.496875 638.285 535.904375 638.285zM672.87875 985.8425c-12.28125 0-22.2975-10.00125-22.2975-22.2975L650.58125 756.816875c0-42.58875 32.76375-77.24625 72.991875-77.24625l179.48625 0c12.313125 0 22.314375 9.969375 22.314375 22.280625 0 12.328125-10.00125 22.2975-22.314375 22.2975l-179.47125 0c-15.635625 0-28.381875 14.671875-28.381875 32.668125l0 206.745C695.208125 975.84125 685.20875 985.8425 672.87875 985.8425z" p-id="8487" fill="#8a8a8a"></path></svg>