<?xml version="1.0" standalone="no"?><!DOCTYPE svg PUBLIC "-//W3C//DTD SVG 1.1//EN" "http://www.w3.org/Graphics/SVG/1.1/DTD/svg11.dtd"><svg t="1536646952542" class="icon" style="" viewBox="0 0 1024 1024" version="1.1" xmlns="http://www.w3.org/2000/svg" p-id="8475" xmlns:xlink="http://www.w3.org/1999/xlink" width="16" height="16"><defs><style type="text/css"></style></defs><path d="M808.854477 375.633193c0-163.997098-134.543276-296.918433-300.536844-296.918433-165.995615 0-300.536844 132.921335-300.536844 296.918433 0 94.696756 45.01831 178.827875 114.873284 233.189993-125.261888 63.085804-213.430974 188.69357-223.198431 334.665129l44.950771 0c10.544147-136.692219 99.246375-257.717619 223.043912-305.83143 39.333844 18.691711 94.296643 34.896788 140.867308 34.896788 46.571688 0 90.499154-10.767228 129.836067-29.455869l30.833239-17.869996 24.970718-16.403598C763.838214 554.461067 808.854477 470.329948 808.854477 375.633193zM508.316609 624.184035c-138.957819 0-251.590062-111.277386-251.590062-248.570285 0-137.251967 112.632243-248.550843 251.590062-248.550843 138.957819 0 251.613598 111.298875 251.613598 248.550843C759.930207 512.904603 652.85554 624.184035 508.316609 624.184035zM762.570337 652.440589l-0.221034 0.312108c-4.907777-4.683672-11.453866-7.633864-18.779715-7.633864-15.117302 0-27.347858 5.746888-27.347858 20.863167 0 10.431583 6.037507 19.178805 14.603603 23.786753l-0.177032 0.268106c82.176604 58.731636 123.620505 147.655921 131.789559 253.452479l54.738695 0C909.319609 825.970808 850.562391 721.331609 762.570337 652.440589z" p-id="8476" fill="#8a8a8a"></path></svg>