<?xml version="1.0" standalone="no"?><!DOCTYPE svg PUBLIC "-//W3C//DTD SVG 1.1//EN" "http://www.w3.org/Graphics/SVG/1.1/DTD/svg11.dtd"><svg t="1536646876991" class="icon" style="" viewBox="0 0 1024 1024" version="1.1" xmlns="http://www.w3.org/2000/svg" p-id="6183" xmlns:xlink="http://www.w3.org/1999/xlink" width="16" height="16"><defs><style type="text/css"></style></defs><path d="M512.434905 657.688103l-0.86981 0c-3.434216 0-6.640234-1.723248-8.535397-4.587482L408.483368 510.151909c-3.116991-4.713348-1.823532-11.062963 2.889817-14.179954 4.712325-3.118014 11.06194-1.824555 14.179954 2.889817l86.446861 130.700761 86.446861-130.700761c3.118014-4.713348 9.463536-6.008854 14.179954-2.889817 4.713348 3.118014 6.007831 9.466606 2.889817 14.179954L520.969279 653.100622C519.075139 655.965879 515.869121 657.688103 512.434905 657.688103z" p-id="6184" fill="#A7529B"></path><path d="M638.190027 657.688103 385.809973 657.688103c-5.65172 0-10.233062-4.582365-10.233062-10.233062s4.581342-10.233062 10.233062-10.233062l252.380054 0c5.650697 0 10.233062 4.582365 10.233062 10.233062S643.841747 657.688103 638.190027 657.688103z" p-id="6185" fill="#A7529B"></path><path d="M638.190027 736.879724 385.809973 736.879724c-5.65172 0-10.233062-4.582365-10.233062-10.233062s4.581342-10.233062 10.233062-10.233062l252.380054 0c5.650697 0 10.233062 4.582365 10.233062 10.233062S643.841747 736.879724 638.190027 736.879724z" p-id="6186" fill="#A7529B"></path><path d="M511.565095 839.619666c-5.650697 0-10.233062-4.582365-10.233062-10.233062L501.332033 647.455041c0-5.650697 4.582365-10.233062 10.233062-10.233062s10.233062 4.582365 10.233062 10.233062l0 181.931562C521.798157 835.038324 517.215792 839.619666 511.565095 839.619666z" p-id="6187" fill="#A7529B"></path><path d="M512.052189 986.346425c-102.343923 0-196.520839-24.943089-265.181615-70.235644-36.447097-24.042579-64.919569-53.184293-84.626399-86.61673-21.048385-35.707246-31.720446-75.741032-31.720446-118.990045 0-56.657394 18.536168-123.808794 52.193733-189.085496 34.606169-67.115584 83.35443-128.057561 137.264247-171.600263l2.813069-2.272763 385.551076 0 2.814092 2.27174c54.155411 43.73406 100.423177 102.954837 133.799332 171.259502 31.287587 64.028269 48.518017 131.301442 48.518017 189.426257 0 43.249013-10.671037 83.282798-31.716352 118.989021-19.704784 33.431414-48.172139 62.573127-84.612073 86.61673C708.501396 961.402313 614.355179 986.346425 512.052189 986.346425zM330.052065 368.012631c-50.639331 41.634236-96.41284 99.305727-129.144312 162.785503-32.190143 62.430888-49.9179 126.251426-49.9179 179.705871 0 77.091796 37.051871 142.281517 107.150392 188.522678 65.354474 43.11189 155.528216 66.853617 253.911944 66.853617 98.341772 0 188.484815-23.741727 253.824963-66.852594 70.087265-46.243207 107.132996-111.433952 107.132996-188.522678 0-55.073316-16.492626-119.154797-46.439682-180.441629-31.496341-64.456011-74.835406-120.40937-125.482923-162.049746L330.052065 368.013655z" p-id="6188" fill="#A7529B"></path><path d="M700.461279 320.882218 329.274352 320.882218c-5.65172 0-10.233062-4.581342-10.233062-10.233062s4.581342-10.233062 10.233062-10.233062l371.186927 0c5.650697 0 10.233062 4.581342 10.233062 10.233062S706.111976 320.882218 700.461279 320.882218z" p-id="6189" fill="#A7529B"></path><path d="M686.180018 273.749758 334.974168 273.749758c-5.740748 0-14.106276-2.273786-21.351284-13.107529l-0.441045-0.721431c-3.464915-6.242168-21.183462-39.793308-29.689183-87.417979l-0.020466-0.118704c-4.348028-26.120914-3.109828-46.52564-1.569752-63.609737 0.277316-14.07046 11.808954-25.432229 25.944905-25.432229l1.284249 0c61.194734-1.677199 81.693604-16.871249 98.17088-29.081339 11.524474-8.540514 22.410406-16.607236 41.918715-16.607236 42.230824 0 55.923684 26.406416 57.304124 40.533159 0.288572 2.234901 7.161097 52.27969 38.297234 52.27969 14.169721 0 18.567891-12.467963 19.733437-23.14514l0-1.906419 0.200568-0.998747c2.376117-11.81714 13.68672-21.073968 25.749454-21.073968l124.235512 0c14.175861 0 25.732058 11.435447 25.933649 25.571399 0.998747 15.297404 1.318018 45.299719-7.386224 76.93216-6.912433 37.080523-16.276708 58.8442-23.672142 73.674976C705.204303 268.307815 696.228885 273.749758 686.180018 273.749758zM330.85843 249.591545c1.759063 2.533706 3.353374 3.692089 4.115738 3.692089l351.20585 0c0.860601 0 3.773953-0.210801 5.13802-2.923586 6.812149-13.662161 15.476483-33.842783 21.931498-68.681242l0.201591-0.873903c8.074909-29.080316 7.717775-56.862056 6.786567-70.833255l-0.022513-0.680499c0-2.920516-2.556219-5.482875-5.470595-5.482875L590.508052 103.808274c-2.124384 0-4.668323 1.908466-5.483898 3.971451l-0.051165 1.100054c-2.610454 25.938766-17.994839 42.052768-40.148395 42.052768-21.220301 0-38.184671-12.69616-49.059346-36.715203-7.522324-16.614399-9.495258-33.050744-9.576099-33.742499l-0.021489-0.187265c-0.347924-2.638083-4.046153-22.167882-36.9434-22.167882-12.751419 0-19.144012 4.736884-29.734208 12.58462-17.806551 13.195533-42.192961 31.268144-109.941971 33.100886l-1.699712 0.004093c-2.921539 0-5.483898 2.562359-5.483898 5.482875l-0.041956 0.924045c-1.439792 15.888875-2.6432 34.842553 1.330298 58.753125C311.423799 212.431204 327.207273 242.941078 330.85843 249.591545z" p-id="6190" fill="#A7529B"></path></svg>