<?xml version="1.0" standalone="no"?><!DOCTYPE svg PUBLIC "-//W3C//DTD SVG 1.1//EN" "http://www.w3.org/Graphics/SVG/1.1/DTD/svg11.dtd"><svg t="1536646899158" class="icon" style="" viewBox="0 0 1097 1024" version="1.1" xmlns="http://www.w3.org/2000/svg" p-id="6985" xmlns:xlink="http://www.w3.org/1999/xlink" width="17.140625" height="16"><defs><style type="text/css"></style></defs><path d="M899.657143 7.314286H190.171429C87.771429 7.314286 0 87.771429 0 197.485714v636.342857C0 936.228571 87.771429 1024 190.171429 1024h709.485714c109.714286 0 190.171429-87.771429 190.171428-190.171429V197.485714C1097.142857 87.771429 1009.371429 7.314286 899.657143 7.314286zM1038.628571 658.285714H650.971429C585.142857 658.285714 526.628571 607.085714 512 548.571429v-7.314286-7.314286-29.257143-7.314285-7.314286c14.628571-65.828571 73.142857-109.714286 138.971429-109.714286h387.657142V658.285714z m0-343.771428H650.971429C541.257143 314.514286 446.171429 402.285714 446.171429 512s87.771429 197.485714 204.8 197.485714h387.657142V826.514286c0 73.142857-58.514286 131.657143-131.657142 131.657143H190.171429c-73.142857 0-131.657143-58.514286-131.657143-131.657143V197.485714c0-73.142857 58.514286-131.657143 131.657143-131.657143h709.485714c73.142857 0 131.657143 58.514286 131.657143 131.657143v117.028572z" p-id="6986" fill="#A7529B"></path><path d="M563.2 519.314286c0 51.2 43.885714 95.085714 95.085714 95.085714 51.2 0 95.085714-43.885714 95.085715-95.085714 0-51.2-43.885714-95.085714-95.085715-95.085715-51.2-7.314286-95.085714 36.571429-95.085714 95.085715zM658.285714 475.428571c21.942857 0 43.885714 21.942857 43.885715 43.885715s-21.942857 43.885714-43.885715 43.885714-43.885714-21.942857-43.885714-43.885714c0-29.257143 21.942857-43.885714 43.885714-43.885715z" p-id="6987" fill="#A7529B"></path></svg>