<?xml version="1.0" standalone="no"?><!DOCTYPE svg PUBLIC "-//W3C//DTD SVG 1.1//EN" "http://www.w3.org/Graphics/SVG/1.1/DTD/svg11.dtd"><svg t="1536648415104" class="icon" style="" viewBox="0 0 1024 1024" version="1.1" xmlns="http://www.w3.org/2000/svg" p-id="14109" xmlns:xlink="http://www.w3.org/1999/xlink" width="16" height="16"><defs><style type="text/css"></style></defs><path d="M512 46.545455C255.348364 46.545455 46.545455 255.348364 46.545455 512s208.802909 465.454545 465.454545 465.454545 465.454545-208.849455 465.454545-465.454545c0-256.651636-208.802909-465.454545-465.454545-465.454545z m0 887.947636c-232.96 0-422.493091-189.533091-422.493091-422.493091S279.04 89.506909 512 89.506909 934.493091 279.04 934.493091 512c0 232.913455-189.533091 422.493091-422.493091 422.493091z m21.224727-487.982546c0-41.518545-42.402909-41.658182-42.402909 0V786.618182c0 41.192727 43.287273 41.146182 42.402909 0V446.510545z m-42.728727-99.188363h43.008V275.688727h-43.008v71.633455z" fill="#858585" p-id="14110"></path></svg>