<?xml version="1.0" standalone="no"?><!DOCTYPE svg PUBLIC "-//W3C//DTD SVG 1.1//EN" "http://www.w3.org/Graphics/SVG/1.1/DTD/svg11.dtd"><svg t="1536648374946" class="icon" style="" viewBox="0 0 1024 1024" version="1.1" xmlns="http://www.w3.org/2000/svg" p-id="13187" xmlns:xlink="http://www.w3.org/1999/xlink" width="16" height="16"><defs><style type="text/css"></style></defs><path d="M910.63901049 33.21288783h-696.06409493C164.23671716 33.21288783 122.32835983 72.71271823 122.32835983 122.81006543V247.57172623h28.90231466V122.81006543C151.23067449 88.60899129 180.13299023 62.11520249 214.33406329 62.11520249h696.06409387c34.20107307 0 61.89912533 26.4937888 61.89912533 60.69486294v777.9539872c0 34.20107307-27.69805227 61.89912533-61.89912533 61.89912533h-696.06409387C180.13299023 962.90403023 151.23067449 935.20597796 151.23067449 901.00490489V736.50256036H122.32835983v164.50234453c0 50.09734613 41.90835733 90.80144107 92.00570346 90.80144107h696.06409387c50.09734613 0 90.80144107-40.70409387 90.80144107-90.80144107v-777.9539872C1001.44045049 72.71271823 960.73635663 33.21288783 910.63901049 33.21288783z" fill="#8a8a8a" p-id="13188"></path><path d="M42.84699236 322.23604089h168.59683947c8.6706944 0 15.6554208-6.9847264 15.6554208-15.6554208s-6.9847264-15.6554208-15.6554208-15.6554208H42.84699236c-8.6706944 0-15.6554208 6.9847264-15.6554208 15.6554208s6.9847264 15.6554208 15.6554208 15.6554208zM42.84699236 490.83288036h168.59683947c8.6706944 0 15.6554208-6.9847264 15.6554208-15.6554208s-6.9847264-15.6554208-15.6554208-15.6554208H42.84699236c-8.6706944 0-15.6554208 6.9847264-15.6554208 15.6554208s6.9847264 15.6554208 15.6554208 15.6554208zM227.09925263 650.99987769c0-8.6706944-6.9847264-15.6554208-15.6554208-15.6554208H42.84699236c-8.6706944 0-15.6554208 6.9847264-15.6554208 15.6554208s6.9847264 15.6554208 15.6554208 15.6554208h168.59683947c8.6706944 0 15.6554208-6.9847264 15.6554208-15.6554208zM375.94617636 726.86845476h28.90231573c0-116.0909664 94.65508267-210.74604907 210.74604907-210.74604907s210.74604907 94.65508267 210.74604907 210.74604907h28.90231573c0-111.99647147-77.31369387-206.41070187-181.3620288-232.42278507 45.03944107-21.676736 76.35028267-67.92044053 76.35028267-121.3897248 0-74.18260907-60.4540096-134.63661867-134.63661867-134.63661866s-134.63661867 60.4540096-134.63661867 134.63661866c0 53.22843093 31.3108416 99.47213547 76.35028267 121.3897248-104.04833493 26.01208427-181.3620288 120.4263136-181.3620288 232.42278507z m133.9140608-353.81250987c0-58.286336 47.447968-105.734304 105.734304-105.73430293s105.734304 47.447968 105.734304 105.73430293S673.88087716 478.79024889 615.59454116 478.79024889s-105.734304-47.447968-105.734304-105.734304z" fill="#8a8a8a" p-id="13189"></path></svg>