<?xml version="1.0" standalone="no"?><!DOCTYPE svg PUBLIC "-//W3C//DTD SVG 1.1//EN" "http://www.w3.org/Graphics/SVG/1.1/DTD/svg11.dtd"><svg t="1536648457686" class="icon" style="" viewBox="0 0 1024 1024" version="1.1" xmlns="http://www.w3.org/2000/svg" p-id="15641" xmlns:xlink="http://www.w3.org/1999/xlink" width="16" height="16"><defs><style type="text/css"></style></defs><path d="M512 998.059c-255.19 0-462.794-207.603-462.794-462.794 0-156.122 78.097-300.701 208.878-386.735 12.634-8.228 29.527-4.769 37.829 7.828 8.301 12.597 4.769 29.564-7.828 37.829-115.38 75.876-184.302 203.417-184.302 341.078 0.036 225.079 183.137 408.18 408.217 408.18 225.116 0 408.217-183.101 408.217-408.18 0-137.698-68.922-265.202-184.302-341.078-12.597-8.301-16.093-25.231-7.828-37.829 8.338-12.597 25.231-16.020 37.829-7.828 130.817 86.034 208.914 230.614 208.914 386.735-0.036 255.19-207.639 462.794-462.83 462.794z" p-id="15642" fill="#8a8a8a"></path><path d="M512 422.617c-15.073 0-27.307-12.234-27.307-27.307v-342.062c0-15.073 12.234-27.307 27.307-27.307s27.307 12.234 27.307 27.307v342.062c0 15.073-12.234 27.307-27.307 27.307z" p-id="15643" fill="#8a8a8a"></path></svg>