<?xml version="1.0" standalone="no"?><!DOCTYPE svg PUBLIC "-//W3C//DTD SVG 1.1//EN" "http://www.w3.org/Graphics/SVG/1.1/DTD/svg11.dtd"><svg t="1536570261108" class="icon" style="" viewBox="0 0 1024 1024" version="1.1" xmlns="http://www.w3.org/2000/svg" p-id="10103" xmlns:xlink="http://www.w3.org/1999/xlink" width="16" height="16"><defs><style type="text/css"></style></defs><path d="M1022.4 801.6V632c0-120 1.6-240 0-360 0-56-30.4-100.8-89.6-104-43.2-1.6-86.4 0-129.6 0-4.8-56-30.4-99.2-99.2-99.2-64-1.6-128 0-192 0s-128-1.6-192 0c-68.8 1.6-92.8 43.2-99.2 99.2C134.4 164.8 6.4 148.8 1.6 260.8c-3.2 92.8 0 187.2 0 280 0 104-1.6 206.4 0 310.4 0 49.6 24 96 78.4 102.4 20.8 3.2 43.2 1.6 64 1.6h680c67.2 0 177.6 19.2 196.8-70.4 6.4-27.2 1.6-57.6 1.6-83.2z m-49.6-523.2v566.4c0 30.4-6.4 56-43.2 59.2-24 1.6-48 0-72 0H120c-30.4 0-64 3.2-68.8-40-8-70.4 0-145.6 0-216V297.6c0-38.4-3.2-75.2 48-78.4 48-3.2 97.6 0 145.6 0 14.4 0 25.6-11.2 25.6-25.6 0-32-3.2-68.8 38.4-75.2 11.2-1.6 22.4 0 33.6 0h336c11.2 0 22.4-1.6 33.6 0 43.2 4.8 40 43.2 38.4 75.2 0 8 3.2 14.4 8 19.2 4.8 3.2 9.6 6.4 16 6.4h136c27.2 0 52.8 4.8 57.6 38.4 4.8 6.4 4.8 14.4 4.8 20.8z" p-id="10104" fill="#ffffff"></path><path d="M672 470.4c46.4 84.8 24 192-57.6 246.4-70.4 48-166.4 38.4-228.8-19.2-62.4-57.6-75.2-155.2-32-227.2 48-81.6 145.6-108.8 232-76.8 30.4 11.2 43.2-36.8 12.8-48-107.2-40-230.4 0-289.6 100.8-56 96-35.2 222.4 48 296 81.6 72 206.4 76.8 294.4 12.8 97.6-72 120-203.2 64-307.2-14.4-30.4-57.6-4.8-43.2 22.4zM808 369.6h60.8c32 0 32-51.2 0-51.2h-60.8c-32 1.6-33.6 51.2 0 51.2z" p-id="10105" fill="#ffffff"></path></svg>