<?xml version="1.0" standalone="no"?><!DOCTYPE svg PUBLIC "-//W3C//DTD SVG 1.1//EN" "http://www.w3.org/Graphics/SVG/1.1/DTD/svg11.dtd"><svg t="1536570243672" class="icon" style="" viewBox="0 0 1024 1024" version="1.1" xmlns="http://www.w3.org/2000/svg" p-id="9313" xmlns:xlink="http://www.w3.org/1999/xlink" width="16" height="16"><defs><style type="text/css"></style></defs><path d="M847.2558972 220.49737733c0-24.57703199-23.70808969-48.67315293-48.65044897-48.67315293H617.88402519V111.46163029h156.93799748c78.48241471 0.07223986 133.18140388 44.28096952 132.79750063 120.72312422v169.0134059h-60.3625941V220.49737733z m-676.05052759-0.38287125v181.08365433h-60.3605301V232.18475451c0-76.45350667 44.24278558-120.72312422 120.72312421-120.72312422h169.01340589v60.36362611H219.4946193c-24.50582413-0.00103199-48.28924969 24.39540035-48.28924969 48.28924968z m0 579.70009978c0 23.26329856 23.67300176 48.06117813 49.45850341 48.06117812h179.91749659v60.35949811H219.4946193c-76.46485866 0-108.64874779-44.25826556-108.6487478-120.7231242V618.49978398h60.36053012v181.31482188z m676.05052759-0.57791888V618.49978398h60.36259411v169.01237391c0.07223986 76.46485866-43.91977022 120.67358831-120.72312422 120.7231242H617.88402519v-60.35949811h180.4324636c25.28807861 0 48.93940842-24.24369665 48.93940841-48.639097z m169.01237391-289.36294683c0 20.01663291-16.2271363 36.24273721-36.24273722 36.24273721H38.43573293C18.41910003 546.11647736 2.19299572 529.88934105 2.19299572 509.87374015c0-20.01663291 16.2271363-36.24273721 36.24273721-36.24273722h941.58980096c20.0156009 0 36.24273721 16.22610431 36.24273722 36.24273722z" p-id="9314" fill="#ffffff"></path></svg>